HIERARCHY
ROOT Hips
{
	OFFSET 0.00000 0.00000 0.00000
	CHANNELS 6 Xposition Yposition Zposition Zrotation Yrotation Xrotation 
	JOINT LHipJoint
	{
		OFFSET 0 0 0
		CHANNELS 3 Zrotation Yrotation Xrotation
		JOINT LeftHip
		{
			OFFSET 1.60223 -1.58443 0.78595
			CHANNELS 3 Zrotation Yrotation Xrotation
			JOINT LeftKnee
			{
				OFFSET 2.21690 -6.09089 0.00000
				CHANNELS 3 Zrotation Yrotation Xrotation
				JOINT LeftAnkle
				{
					OFFSET 2.34805 -6.45122 0.00000
					CHANNELS 3 Zrotation Yrotation Xrotation
					JOINT LeftToe
					{
						OFFSET 0.35452 -0.97402 1.38549
						CHANNELS 3 Zrotation Yrotation Xrotation
						End Site
						{
							OFFSET 0.00000 -0.00000 0.82816
						}
					}
				}
			}
		}
	}
	JOINT RHipJoint
	{
		OFFSET 0 0 0
		CHANNELS 3 Zrotation Yrotation Xrotation
		JOINT RightHip
		{
			OFFSET -1.56524 -1.58443 0.78595
			CHANNELS 3 Zrotation Yrotation Xrotation
			JOINT RightKnee
			{
				OFFSET -2.15558 -5.92241 0.00000
				CHANNELS 3 Zrotation Yrotation Xrotation
				JOINT RightAnkle
				{
					OFFSET -2.35077 -6.45870 0.00000
					CHANNELS 3 Zrotation Yrotation Xrotation
					JOINT RightToe
					{
						OFFSET -0.26910 -0.73935 1.33295
						CHANNELS 3 Zrotation Yrotation Xrotation
						End Site
						{
							OFFSET -0.00000 -0.00000 0.75962
						}
					}
				}
			}
		}
	}
	JOINT lowerback
	{
		OFFSET 0 0 0
		CHANNELS 3 Zrotation Yrotation Xrotation
		JOINT Chest
		{
			OFFSET -0.05489 1.97104 -0.02993
			CHANNELS 3 Zrotation Yrotation Xrotation
			JOINT Chest2
			{
				OFFSET -0.00702 1.94230 0.13626
				CHANNELS 3 Zrotation Yrotation Xrotation
				JOINT lowerneck
				{
					OFFSET 0 0 0
					CHANNELS 3 Zrotation Yrotation Xrotation
					JOINT Neck
					{
						OFFSET -0.07858 1.62869 -0.02510
						CHANNELS 3 Zrotation Yrotation Xrotation
						JOINT Head
						{
							OFFSET 0.13978 1.59213 -0.29859
							CHANNELS 3 Zrotation Yrotation Xrotation
							End Site
							{
								OFFSET 0.05353 1.64420 -0.10000
							}
						}
					}
				}
				JOINT LeftCollar
				{
					OFFSET 0 0 0
					CHANNELS 3 Zrotation Yrotation Xrotation
					JOINT LeftShoulder
					{
						OFFSET 3.48263 1.15278 0.52941
CHANNELS 3 Zrotation Xrotation Yrotation
						JOINT LeftElbow
						{
OFFSET 0 -4.592070 -0.000000
CHANNELS 3 Zrotation Xrotation Yrotation
							JOINT LeftWrist
							{
OFFSET 0 -2.981090 -0.000000
CHANNELS 3 Zrotation Xrotation Yrotation
								JOINT lhand
								{
									OFFSET 0 0 0
CHANNELS 3 Zrotation Xrotation Yrotation
									JOINT LFingers
									{
OFFSET 0 -0.480200 -0.000000
CHANNELS 3 Zrotation Xrotation Yrotation
										End Site
										{
OFFSET 0 -0.387150 -0.000000
										}
									}
								}
								JOINT LThumb
								{
OFFSET 0 0.000000 0.000000
CHANNELS 3 Zrotation Xrotation Yrotation
									End Site
									{
OFFSET 0 -0.393060 0.393060
									}
								}
							}
						}
					}
				}
				JOINT RightCollar
				{
					OFFSET 0 0 0
					CHANNELS 3 Zrotation Yrotation Xrotation
					JOINT RightShoulder
					{
						OFFSET -3.52496 1.12722 0.24548
CHANNELS 3 Zrotation Xrotation Yrotation
						JOINT RightElbow
						{
OFFSET 0 -4.765080 -0.000000
CHANNELS 3 Zrotation Xrotation Yrotation
							JOINT RightWrist
							{
OFFSET 0 -2.789020 -0.000000
CHANNELS 3 Zrotation Xrotation Yrotation
								JOINT rhand
								{
									OFFSET 0 0 0
CHANNELS 3 Zrotation Xrotation Yrotation
									JOINT RFingers
									{
OFFSET 0 -0.721300 -0.000000
CHANNELS 3 Zrotation Xrotation Yrotation
										End Site
										{
OFFSET 0 -0.581530 -0.000000
										}
									}
								}
								JOINT RThumb
								{
OFFSET 0 0.000000 0.000000
CHANNELS 3 Zrotation Xrotation Yrotation
									End Site
									{
OFFSET 0 -0.590410 0.590410
									}
								}
							}
						}
					}
				}
			}
		}
	}
}
MOTION
Frames: 7
Frame Time: 0.008333333333333333
32.537300 15.783400 -0.397900 69.056800 -87.703000 -61.524000 0.000000 0.000000 0.000000 -21.346600 -8.719600 -22.959000 3.600700 11.609200 34.363100 1.840000 3.340100 -27.002100 0.947900 -6.200400 -17.366900 0.000000 0.000000 0.000000 20.650100 -4.664200 -9.324100 -3.306100 -11.174800 32.871800 0.661700 -14.654400 -9.207900 -3.897000 12.022000 -35.809900 -6.817300 3.246300 1.353800 -0.588800 3.969700 -4.374600 2.927900 2.227300 -5.756600 -8.030900 -1.944200 -2.429800 2.784600 -4.151200 33.971000 1.913800 -3.123600 11.714200 0.000000 0.000000 0.000000 -7.558500 22.486700 -4.934600 131.089500 -52.546500 94.693400 3.752200 25.499900 -44.454000 0.000000 0.000000 0.000000 -7.125000 0.000000 0.000000 -49.043600 68.518700 30.267900 0.000000 0.000000 0.000000 3.180000 19.183600 -26.585600 -28.894800 -39.927000 -10.693100 9.035300 -159.326900 -26.504500 0.000000 0.000000 0.000000 7.125000 0.000000 -0.000000 22.931500 4.842900 22.870200
32.895447 15.735718 -0.513119 65.526776 -90.832105 -59.675107 0.000000 0.000000 0.000000 -17.198648 -9.531074 -26.605686 5.148287 13.546688 41.455054 2.253846 2.463951 -29.337752 2.651004 -10.106782 -29.323824 0.000000 0.000000 0.000000 23.568517 -5.995513 -8.249914 -3.002626 -10.699256 31.272260 0.098995 -9.772781 -12.066875 -3.638540 11.660714 -34.545265 -2.248864 3.672527 3.247403 -0.013430 4.754587 -3.664286 0.843850 2.436216 -5.804287 -8.456557 -2.216418 -2.275758 4.008603 -4.548216 31.168407 2.402787 -3.100026 10.630949 0.000000 0.000000 0.000000 -9.553019 22.494230 -2.164019 110.803155 -58.271811 77.908682 9.102068 26.691843 -46.074416 0.000000 0.000000 0.000000 -7.125000 0.000000 0.000000 -47.639823 71.327794 32.005918 0.000000 0.000000 0.000000 2.339957 14.144705 -22.832536 -28.073638 -39.183917 -10.170193 -20.018130 -156.872427 10.731654 0.000000 0.000000 0.000000 7.125000 0.000000 0.000000 6.272803 41.410788 0.820433
33.064842 15.752877 -0.656206 81.304615 -91.932137 -77.203140 0.000000 0.000000 0.000000 -14.495689 -10.499859 -29.351677 6.076664 14.502157 45.288501 1.689268 1.083236 -24.983682 2.379029 -9.613060 -27.733867 0.000000 0.000000 0.000000 25.309228 -7.833692 -6.190823 -2.582508 -9.984939 28.929349 -0.035177 -8.709509 -13.053671 -2.974961 10.653691 -31.121275 -1.296007 3.339865 5.037591 0.550663 4.385933 -3.358005 0.831325 2.226695 -6.463901 -8.683056 -2.724240 -1.623470 5.472778 -5.365007 27.830276 2.881161 -3.257214 9.364810 0.000000 0.000000 0.000000 -9.869851 23.941661 -0.519590 86.898876 -59.930337 57.315478 -1.731437 25.204699 -48.497564 0.000000 0.000000 0.000000 -7.125000 0.000000 0.000000 -62.285878 68.977625 41.064642 0.000000 0.000000 0.000000 2.202124 10.139508 -17.046358 -29.126138 -40.131938 -10.842106 -48.817202 -124.337128 42.573870 0.000000 0.000000 0.000000 7.125000 0.000000 0.000000 -53.138857 81.718755 48.306828
33.005023 15.857377 -0.697085 66.075997 -92.206213 -63.357927 0.000000 0.000000 0.000000 -13.269245 -13.083608 -29.063713 5.466734 13.890435 42.801190 1.495708 1.631822 -23.750404 2.424381 -9.698899 -28.007235 0.000000 0.000000 0.000000 26.114618 -5.997682 -0.858706 -1.810082 -8.457681 24.113714 0.285224 -12.060266 -12.469080 -2.588025 9.995781 -28.963498 -0.708862 3.172585 5.027744 0.558278 4.209989 -2.845882 0.551641 2.115685 -5.867858 -8.824441 -3.198781 -1.457665 6.493672 -5.943139 24.741703 3.191642 -3.364928 8.327870 0.000000 0.000000 0.000000 -10.704230 23.909779 3.171654 64.260556 -57.332643 37.909756 0.244118 27.699199 -44.991060 0.000000 0.000000 0.000000 -7.125000 0.000000 0.000000 -53.245427 67.726891 32.517161 0.000000 0.000000 0.000000 3.865658 7.802694 -11.484704 -31.994737 -42.542067 -12.737589 -52.316819 -126.707366 44.396063 0.000000 0.000000 0.000000 7.125000 0.000000 0.000000 -70.736620 84.314774 65.258998
32.811636 15.956313 -0.662893 44.794925 -92.631408 -42.138741 0.000000 0.000000 0.000000 -12.699093 -14.190284 -29.302752 4.276800 12.518975 37.594935 1.404469 2.668956 -23.487998 2.300626 -9.465993 -27.264263 0.000000 0.000000 0.000000 25.943172 -5.480447 3.285359 -1.088446 -6.627797 18.618329 0.509372 -13.516669 -10.438926 -2.268549 9.404301 -27.068421 -0.665155 3.374464 3.947264 0.635402 4.486024 -3.021989 0.641144 2.253247 -5.444514 -8.973148 -3.515571 -1.354410 7.001588 -6.240956 22.474978 3.352410 -3.423531 7.590717 0.000000 0.000000 0.000000 -11.951370 24.108611 6.470776 51.987231 -53.763951 27.769839 5.603385 29.593157 -45.176795 0.000000 0.000000 0.000000 -7.125000 0.000000 0.000000 -48.817955 69.581918 31.173463 0.000000 0.000000 0.000000 4.620488 7.541703 -4.105853 -36.038545 -45.537089 -15.550783 -52.299962 -134.295494 44.406367 0.000000 0.000000 0.000000 7.125000 0.000000 0.000000 -70.695496 84.324082 65.228929
32.500229 15.926547 -0.570346 39.283755 -93.755300 -37.118808 0.000000 0.000000 0.000000 -11.809514 -15.048829 -28.519453 3.583488 11.584224 34.276967 1.286494 3.553444 -22.969978 2.003821 -8.873840 -25.401573 0.000000 0.000000 0.000000 25.624334 -7.300746 7.384308 -0.591717 -4.921294 13.684895 0.543590 -13.325706 -8.381232 -2.393794 9.642140 -27.825417 -0.285328 3.574705 3.666192 1.014561 4.791684 -3.194885 0.807354 2.396511 -5.474054 -10.259755 -3.607462 -2.320675 8.532413 -6.257924 20.756493 4.051121 -3.341694 7.281796 0.000000 0.000000 0.000000 -13.171535 24.920366 8.451560 49.482864 -52.784729 25.761704 2.686908 28.528872 -44.029548 0.000000 0.000000 0.000000 -7.125000 0.000000 0.000000 -49.192582 67.908509 29.747274 0.000000 0.000000 0.000000 4.383869 7.691021 3.484183 -41.021239 -48.660262 -19.203553 -52.476623 221.387553 44.357619 0.000000 0.000000 0.000000 7.125000 0.000000 0.000000 -71.565883 84.263748 66.013912
32.020013 15.861260 -0.412269 36.952110 -94.515527 -34.385681 0.000000 0.000000 0.000000 -11.779254 -15.997098 -27.032434 3.316867 11.191077 32.927116 1.003310 4.300623 -20.935988 2.113293 -9.098148 -26.102913 0.000000 0.000000 0.000000 25.192387 -7.127338 10.249416 -0.409045 -4.105534 11.373748 0.628946 -14.036520 -7.425609 -2.348279 9.556645 -27.552718 -0.284986 3.782151 2.120466 1.084575 5.054673 -3.767550 0.943699 2.526671 -5.206022 -10.103873 -4.027273 -1.817871 9.223257 -6.692573 17.609011 4.203478 -3.453463 6.242896 0.000000 0.000000 0.000000 -12.783479 25.104215 8.475378 48.389195 -52.324487 24.893476 3.176542 27.340659 -43.254447 0.000000 0.000000 0.000000 -7.125000 0.000000 0.000000 -47.290800 67.557198 28.043441 0.000000 0.000000 0.000000 4.656607 8.361771 7.984419 -44.850978 -50.694799 -22.123513 -52.667860 219.043373 44.724952 0.000000 0.000000 0.000000 7.125000 0.000000 0.000000 -75.518181 84.483746 70.089805
